<svg xmlns="http://www.w3.org/2000/svg" xmlns:xlink="http://www.w3.org/1999/xlink" width="1024" zoomAndPan="magnify" viewBox="0 0 768 767.999994" height="1024" preserveAspectRatio="xMidYMid meet" version="1.0"><defs><g/><clipPath id="8913e5796a"><path d="M 177.75 177.75 L 590.25 177.75 L 590.25 590.25 L 177.75 590.25 Z M 177.75 177.75 " clip-rule="nonzero"/></clipPath><clipPath id="9e56804a6d"><path d="M 384 177.75 C 270.089844 177.75 177.75 270.089844 177.75 384 C 177.75 497.910156 270.089844 590.25 384 590.25 C 497.910156 590.25 590.25 497.910156 590.25 384 C 590.25 270.089844 497.910156 177.75 384 177.75 Z M 384 177.75 " clip-rule="nonzero"/></clipPath><clipPath id="5946791059"><path d="M 0.75 0.75 L 413.25 0.75 L 413.25 413.25 L 0.75 413.25 Z M 0.75 0.75 " clip-rule="nonzero"/></clipPath><clipPath id="27d3cb25e8"><path d="M 207 0.75 C 93.089844 0.75 0.75 93.089844 0.75 207 C 0.75 320.910156 93.089844 413.25 207 413.25 C 320.910156 413.25 413.25 320.910156 413.25 207 C 413.25 93.089844 320.910156 0.75 207 0.75 Z M 207 0.75 " clip-rule="nonzero"/></clipPath><clipPath id="4bc7d32d6c"><rect x="0" width="414" y="0" height="414"/></clipPath><clipPath id="109521c8e2"><path d="M 204.566406 198.980469 L 564.828125 198.980469 L 564.828125 567.6875 L 204.566406 567.6875 Z M 204.566406 198.980469 " clip-rule="nonzero"/></clipPath><clipPath id="cd56e8978a"><path d="M 384.699219 198.980469 C 285.214844 198.980469 204.566406 281.503906 204.566406 383.300781 C 204.566406 485.097656 285.214844 567.621094 384.699219 567.621094 C 484.183594 567.621094 564.828125 485.097656 564.828125 383.300781 C 564.828125 281.503906 484.183594 198.980469 384.699219 198.980469 Z M 384.699219 198.980469 " clip-rule="nonzero"/></clipPath><clipPath id="61b2721f55"><path d="M 0.566406 0.980469 L 360.828125 0.980469 L 360.828125 369.6875 L 0.566406 369.6875 Z M 0.566406 0.980469 " clip-rule="nonzero"/></clipPath><clipPath id="cacae032c4"><path d="M 180.699219 0.980469 C 81.214844 0.980469 0.566406 83.503906 0.566406 185.300781 C 0.566406 287.097656 81.214844 369.621094 180.699219 369.621094 C 280.183594 369.621094 360.828125 287.097656 360.828125 185.300781 C 360.828125 83.503906 280.183594 0.980469 180.699219 0.980469 Z M 180.699219 0.980469 " clip-rule="nonzero"/></clipPath><clipPath id="d90e4d9d2d"><rect x="0" width="361" y="0" height="370"/></clipPath><clipPath id="7d045201be"><path d="M 204.566406 198.980469 L 564.566406 198.980469 L 564.566406 567.980469 L 204.566406 567.980469 Z M 204.566406 198.980469 " clip-rule="nonzero"/></clipPath><clipPath id="52aeedd647"><path d="M 384.695312 198.980469 C 285.214844 198.980469 204.566406 281.503906 204.566406 383.300781 C 204.566406 485.097656 285.214844 567.617188 384.695312 567.617188 C 484.179688 567.617188 564.824219 485.097656 564.824219 383.300781 C 564.824219 281.503906 484.179688 198.980469 384.695312 198.980469 Z M 384.695312 198.980469 " clip-rule="nonzero"/></clipPath><clipPath id="a41f484955"><path d="M 204.566406 342.660156 L 564.828125 342.660156 L 564.828125 425.339844 L 204.566406 425.339844 Z M 204.566406 342.660156 " clip-rule="nonzero"/></clipPath><clipPath id="115799a5f7"><path d="M 0.566406 0.660156 L 360.828125 0.660156 L 360.828125 83.339844 L 0.566406 83.339844 Z M 0.566406 0.660156 " clip-rule="nonzero"/></clipPath><clipPath id="31667a28b0"><rect x="0" width="361" y="0" height="84"/></clipPath><clipPath id="53dbbda7b7"><path d="M 305.164062 228.515625 L 462.664062 228.515625 L 462.664062 314 L 305.164062 314 Z M 305.164062 228.515625 " clip-rule="nonzero"/></clipPath><clipPath id="30ff6979da"><path d="M 355.898438 470.242188 L 412.148438 470.242188 L 412.148438 533.992188 L 355.898438 533.992188 Z M 355.898438 470.242188 " clip-rule="nonzero"/></clipPath></defs><g clip-path="url(#8913e5796a)"><g clip-path="url(#9e56804a6d)"><g transform="matrix(1, 0, 0, 1, 177, 177)"><g clip-path="url(#4bc7d32d6c)"><g clip-path="url(#5946791059)"><g clip-path="url(#27d3cb25e8)"><path fill="#f7f9fb" d="M 0.75 0.75 L 413.25 0.75 L 413.25 413.25 L 0.75 413.25 Z M 0.75 0.75 " fill-opacity="1" fill-rule="nonzero"/></g></g></g></g><path stroke-linecap="butt" transform="matrix(0.75, 0, 0, 0.75, 177.749994, 177.750011)" fill="none" stroke-linejoin="miter" d="M 275.000021 -0.0000149401 C 123.119805 -0.0000149401 0.00000772656 123.119783 0.00000772656 274.999999 C 0.00000772656 426.880215 123.119805 550.000012 275.000021 550.000012 C 426.880237 550.000012 550.000035 426.880215 550.000035 274.999999 C 550.000035 123.119783 426.880237 -0.0000149401 275.000021 -0.0000149401 Z M 275.000021 -0.0000149401 " stroke="#223a5e" stroke-width="36" stroke-opacity="1" stroke-miterlimit="4"/></g></g><g clip-path="url(#109521c8e2)"><g clip-path="url(#cd56e8978a)"><g transform="matrix(1, 0, 0, 1, 204, 198)"><g clip-path="url(#d90e4d9d2d)"><g clip-path="url(#61b2721f55)"><g clip-path="url(#cacae032c4)"><path fill="#223a5e" d="M 0.566406 0.980469 L 360.828125 0.980469 L 360.828125 369.6875 L 0.566406 369.6875 Z M 0.566406 0.980469 " fill-opacity="1" fill-rule="nonzero"/></g></g></g></g></g></g><g clip-path="url(#7d045201be)"><g clip-path="url(#52aeedd647)"><path stroke-linecap="butt" transform="matrix(0.75, 0, 0, 0.75, 204.567283, 198.982232)" fill="none" stroke-linejoin="miter" d="M 240.170733 -0.00235067 C 107.530093 -0.00235067 -0.00116937 110.028912 -0.00116937 245.758094 C -0.00116937 381.487276 107.530093 491.51333 240.170733 491.51333 C 372.816581 491.51333 480.342635 381.487276 480.342635 245.758094 C 480.342635 110.028912 372.816581 -0.00235067 240.170733 -0.00235067 Z M 240.170733 -0.00235067 " stroke="#2ec4b6" stroke-width="54" stroke-opacity="1" stroke-miterlimit="4"/></g></g><g clip-path="url(#a41f484955)"><g transform="matrix(1, 0, 0, 1, 204, 342)"><g clip-path="url(#31667a28b0)"><g clip-path="url(#115799a5f7)"><path fill="#f7f9fb" d="M 0.566406 0.660156 L 360.683594 0.660156 L 360.683594 83.339844 L 0.566406 83.339844 Z M 0.566406 0.660156 " fill-opacity="1" fill-rule="nonzero"/></g></g></g></g><g clip-path="url(#53dbbda7b7)"><path fill="#ffd166" d="M 326.882812 309.695312 C 333.378906 309.96875 339.878906 310.183594 346.371094 310.546875 C 348.34375 310.65625 348.15625 309.179688 348.585938 308.109375 C 349.0625 306.921875 348.023438 305.554688 349.046875 304.375 C 349.324219 304.054688 348.960938 303.863281 348.472656 303.714844 C 343.761719 302.273438 339.507812 299.726562 334.882812 298.027344 C 332.054688 296.984375 329.394531 295.4375 326.5 294.4375 C 325.710938 294.164062 324.007812 293.453125 324.746094 291.894531 C 325.460938 290.390625 326.703125 291.269531 327.683594 291.675781 C 332.085938 293.488281 336.476562 295.34375 340.859375 297.207031 C 343.488281 298.328125 346.097656 299.492188 348.714844 300.640625 C 349.578125 301.015625 350.101562 301.164062 350.335938 299.84375 C 350.535156 298.71875 351.15625 297.558594 351.886719 296.660156 C 353.460938 294.722656 352.277344 293.601562 350.8125 292.703125 C 345.632812 289.523438 340.367188 286.492188 335.191406 283.304688 C 329.828125 280.003906 324.539062 276.582031 319.203125 273.238281 C 318.277344 272.65625 316.960938 271.9375 317.519531 270.894531 C 318.207031 269.621094 319.644531 270.207031 320.703125 270.855469 C 326.625 274.484375 332.535156 278.136719 338.453125 281.777344 C 342.457031 284.242188 346.46875 286.695312 350.476562 289.152344 C 351.023438 289.484375 351.605469 289.765625 352.113281 290.144531 C 354.699219 292.097656 355.359375 292.007812 356.96875 289.335938 C 357.574219 288.324219 357.046875 287.523438 356.355469 286.75 C 351.839844 281.703125 347.347656 276.628906 342.8125 271.59375 C 342.296875 271.019531 341.722656 270.488281 341.027344 270.039062 C 340.410156 269.640625 339.359375 268.792969 340.195312 267.734375 C 341.039062 266.671875 342.101562 266.988281 342.917969 267.792969 C 345 269.832031 347.101562 271.863281 349.027344 274.042969 C 352.140625 277.566406 355.1875 281.15625 358.117188 284.828125 C 359.300781 286.308594 360.316406 286.523438 361.746094 285.335938 C 362.46875 284.734375 363.21875 284.082031 364.070312 283.734375 C 366.730469 282.644531 366.195312 281.125 365.0625 279.144531 C 361.859375 273.546875 358.957031 267.777344 355.652344 262.246094 C 352.183594 256.4375 349.597656 250.183594 346.230469 244.335938 C 345.710938 243.441406 344.875 242.679688 344.566406 241.734375 C 344.390625 241.199219 343.679688 240.324219 344.679688 239.671875 C 345.613281 239.066406 346.394531 239.203125 346.988281 240.0625 C 347.621094 240.980469 348.179688 241.953125 348.710938 242.933594 C 355.167969 254.890625 361.652344 266.832031 368.023438 278.835938 C 368.832031 280.359375 369.710938 280.394531 371.109375 280.0625 C 375.246094 279.085938 375.09375 279.175781 373.808594 274.992188 C 371.964844 268.996094 370.375 262.925781 368.683594 256.882812 C 368.371094 255.769531 368.265625 254.554688 367.742188 253.554688 C 367.199219 252.503906 367.273438 251.765625 368.320312 251.441406 C 369.375 251.117188 370.125 251.617188 370.453125 252.804688 C 371.210938 255.550781 372.09375 258.265625 372.890625 261.003906 C 374.421875 266.253906 375.957031 271.507812 377.429688 276.777344 C 377.859375 278.308594 378.515625 279.21875 380.246094 278.480469 C 381.410156 277.988281 383.105469 279.03125 383.78125 277.816406 C 384.308594 276.871094 383.976562 275.433594 383.988281 274.214844 C 384.054688 265.097656 384.035156 255.976562 384.203125 246.863281 C 384.300781 241.445312 384.671875 236.03125 384.953125 230.621094 C 385.003906 229.707031 384.84375 228.550781 386.378906 228.632812 C 387.957031 228.71875 387.941406 229.824219 387.800781 230.90625 C 386.722656 239.300781 387.03125 247.753906 386.847656 256.179688 C 386.699219 262.988281 386.808594 269.804688 386.574219 276.617188 C 386.507812 278.597656 390.054688 280.621094 391.757812 279.636719 C 391.988281 279.503906 392.132812 279.152344 392.222656 278.875 C 394.363281 272.242188 396.464844 265.597656 398.644531 258.976562 C 399.128906 257.5 400.121094 256.160156 400.457031 254.664062 C 400.769531 253.269531 401.628906 253.058594 402.539062 253.355469 C 403.695312 253.734375 403.550781 254.710938 403.136719 255.75 C 402.027344 258.546875 400.972656 261.371094 400 264.21875 C 398.335938 269.105469 396.738281 274.011719 395.132812 278.917969 C 394.726562 280.15625 394.441406 281.359375 396.339844 281.652344 C 396.867188 281.734375 397.351562 282.105469 397.839844 282.367188 C 399.179688 283.082031 399.964844 282.894531 400.859375 281.417969 C 403.144531 277.648438 405.859375 274.136719 408.152344 270.371094 C 411.621094 264.679688 415.585938 259.289062 418.378906 253.175781 C 419.453125 250.824219 421.054688 248.71875 422.355469 246.464844 C 422.921875 245.480469 423.820312 245.726562 424.464844 245.972656 C 425.367188 246.3125 425.390625 247.085938 424.886719 247.96875 C 422.742188 251.722656 420.75 255.570312 418.53125 259.277344 C 413.726562 267.296875 408.890625 275.304688 403.34375 282.851562 C 402.554688 283.929688 402.328125 284.699219 403.816406 285.722656 C 408.5625 288.984375 408.480469 289.066406 413.019531 284.8125 C 417.707031 280.414062 422.433594 276.054688 427.128906 271.667969 C 428.046875 270.816406 429.082031 269.804688 430.203125 271.007812 C 431.453125 272.351562 430.003906 273.175781 429.152344 273.945312 C 423.378906 279.164062 417.632812 284.410156 411.753906 289.511719 C 410.410156 290.679688 410.417969 291.445312 411.386719 292.738281 C 413.507812 295.570312 413.433594 295.542969 416.589844 293.929688 C 425.878906 289.183594 434.808594 283.753906 444.28125 279.351562 C 446.980469 278.097656 449.5 276.453125 452.105469 274.992188 C 452.640625 274.691406 453.15625 274.238281 453.726562 274.144531 C 454.640625 273.992188 455.820312 273.691406 456.265625 274.875 C 456.664062 275.945312 455.714844 276.496094 454.933594 276.90625 C 441.988281 283.738281 429.035156 290.566406 416.054688 297.335938 C 414.976562 297.898438 414.589844 298.351562 415.265625 299.441406 C 415.601562 299.984375 415.855469 300.59375 416.066406 301.199219 C 416.527344 302.515625 416.394531 304.460938 417.484375 304.992188 C 418.355469 305.417969 419.921875 304.300781 421.207031 303.988281 C 428.78125 302.15625 436.355469 300.324219 443.953125 298.605469 C 444.777344 298.417969 446.308594 297.863281 446.484375 299.492188 C 446.628906 300.847656 445.589844 301.226562 444.304688 301.476562 C 435.8125 303.128906 427.40625 305.152344 419.105469 307.605469 C 417.75 308.003906 418.355469 308.761719 418.289062 309.429688 C 418.1875 310.421875 418.832031 310.691406 419.675781 310.648438 C 431.449219 310.007812 443.210938 310.804688 454.976562 311.046875 C 457.003906 311.089844 459.039062 311.003906 461.066406 310.917969 C 462.03125 310.878906 462.820312 311.289062 462.828125 312.160156 C 462.839844 313.195312 461.996094 313.386719 460.960938 313.417969 C 449.746094 313.78125 438.550781 313.1875 427.34375 313 C 418.378906 312.847656 409.410156 313.082031 400.433594 312.886719 C 394.308594 312.75 388.160156 312.988281 382.023438 313.078125 C 373.578125 313.203125 365.132812 312.816406 356.707031 313.015625 C 340.109375 313.410156 323.566406 312.347656 307 311.851562 C 305.925781 311.816406 305.160156 311.785156 305.230469 310.300781 C 305.3125 308.667969 306.441406 309.253906 307.132812 309.277344 C 313.710938 309.5 320.289062 309.800781 326.867188 310.074219 C 326.871094 309.949219 326.878906 309.824219 326.882812 309.695312 Z M 350.984375 309.746094 C 350.738281 310.828125 351.835938 310.527344 352.707031 310.523438 C 365.042969 310.480469 377.382812 310.417969 389.71875 310.390625 C 397.84375 310.375 405.964844 310.386719 414.089844 310.445312 C 415.265625 310.457031 415.6875 310.214844 415.398438 308.972656 C 413.558594 301.09375 410.703125 293.894531 403.75 288.902344 C 399.871094 286.117188 395.625 284.367188 391.214844 282.710938 C 384.152344 280.058594 377.277344 281.492188 370.53125 283.433594 C 367.765625 284.226562 365.351562 286.386719 362.90625 288.105469 C 355.585938 293.246094 352.257812 300.667969 350.984375 309.742188 Z M 350.984375 309.746094 " fill-opacity="1" fill-rule="nonzero"/></g><path fill="#ffd166" d="M 326.210938 328.511719 C 329.46875 328.601562 332.503906 329.605469 335.511719 330.777344 C 338.625 331.984375 341.625 331.746094 344.546875 330.054688 C 349.710938 327.070312 355.035156 326.652344 360.496094 329.269531 C 362.777344 330.363281 365.148438 331.25 367.636719 331.660156 C 369.273438 331.933594 370.933594 331.769531 372.488281 330.933594 C 374.089844 330.074219 375.753906 329.324219 377.414062 328.582031 C 382.222656 326.433594 386.609375 328.460938 390.933594 330.171875 C 394.453125 331.5625 397.554688 331.597656 400.964844 329.597656 C 406.457031 326.378906 412.078125 325.738281 417.957031 329.316406 C 422.3125 331.964844 427.199219 332.03125 431.652344 329.347656 C 436.480469 326.4375 441.316406 327.035156 446.277344 328.558594 C 447.128906 328.820312 448.238281 329.128906 447.835938 330.351562 C 447.382812 331.714844 446.390625 331.101562 445.433594 330.8125 C 440.863281 329.441406 436.519531 329.382812 432.082031 331.871094 C 427.136719 334.648438 421.753906 334.1875 416.914062 331.53125 C 411.8125 328.730469 407.109375 328.730469 402.25 331.789062 C 398.003906 334.460938 393.546875 334.144531 389.234375 332.117188 C 386.71875 330.933594 384.066406 330.453125 381.421875 330.007812 C 380.105469 329.785156 378.636719 330.542969 377.449219 331.296875 C 371.519531 335.082031 365.601562 334.621094 359.558594 331.5625 C 354.988281 329.25 350.546875 329.3125 346.027344 332.136719 C 342.238281 334.507812 338.230469 334.597656 333.914062 332.71875 C 330.300781 331.148438 326.328125 330.03125 322.253906 331.578125 C 321.410156 331.898438 320.46875 331.933594 320.191406 330.898438 C 319.902344 329.828125 320.777344 329.714844 321.625 329.355469 C 323.128906 328.71875 324.609375 328.449219 326.210938 328.511719 Z M 326.210938 328.511719 " fill-opacity="1" fill-rule="nonzero"/><g clip-path="url(#30ff6979da)"><path fill="#ffd166" d="M 382.199219 481.246094 C 385.691406 483.46875 388.125 487.171875 388.550781 491.40625 C 389.925781 492.039062 391.511719 492.460938 393.207031 492.460938 C 399.34375 492.460938 404.316406 487.488281 404.316406 481.351562 C 404.316406 475.214844 399.34375 470.242188 393.207031 470.242188 C 387.175781 470.347656 382.199219 475.214844 382.199219 481.246094 Z M 374.898438 503.890625 C 381.035156 503.890625 386.011719 498.917969 386.011719 492.78125 C 386.011719 486.640625 381.035156 481.667969 374.898438 481.667969 C 368.761719 481.667969 363.789062 486.640625 363.789062 492.78125 C 363.789062 498.917969 368.761719 503.890625 374.898438 503.890625 Z M 379.554688 504.632812 L 370.136719 504.632812 C 362.304688 504.632812 355.957031 510.980469 355.957031 518.8125 L 355.957031 530.558594 L 356.699219 530.769531 C 364.105469 533.097656 370.667969 533.839844 375.957031 533.839844 C 386.328125 533.839844 392.359375 530.875 392.78125 530.664062 L 393.523438 530.242188 L 393.628906 530.242188 L 393.628906 518.8125 C 393.734375 510.980469 387.386719 504.632812 379.554688 504.632812 Z M 397.863281 493.203125 L 388.550781 493.203125 C 388.445312 496.90625 386.855469 500.292969 384.316406 502.726562 C 391.300781 504.84375 396.378906 511.191406 396.378906 518.8125 L 396.378906 522.304688 C 405.585938 521.984375 410.878906 519.339844 411.195312 519.234375 L 411.9375 518.8125 L 412.042969 518.8125 L 412.042969 507.382812 C 412.042969 499.550781 405.691406 493.203125 397.863281 493.203125 Z M 397.863281 493.203125 " fill-opacity="1" fill-rule="nonzero"/></g><g fill="#223a5e" fill-opacity="1"><g transform="translate(225.156599, 411.75)"><g><path d="M 32.140625 0.578125 C 26.753906 0.578125 21.816406 -0.671875 17.328125 -3.171875 C 12.847656 -5.679688 9.285156 -9.175781 6.640625 -13.65625 C 4.003906 -18.144531 2.6875 -23.191406 2.6875 -28.796875 C 2.6875 -34.398438 4.003906 -39.429688 6.640625 -43.890625 C 9.285156 -48.347656 12.847656 -51.828125 17.328125 -54.328125 C 21.816406 -56.828125 26.753906 -58.078125 32.140625 -58.078125 C 37.523438 -58.078125 42.457031 -56.828125 46.9375 -54.328125 C 51.425781 -51.828125 54.960938 -48.347656 57.546875 -43.890625 C 60.128906 -39.429688 61.421875 -34.398438 61.421875 -28.796875 C 61.421875 -23.191406 60.113281 -18.144531 57.5 -13.65625 C 54.894531 -9.175781 51.363281 -5.679688 46.90625 -3.171875 C 42.445312 -0.671875 37.523438 0.578125 32.140625 0.578125 Z M 32.140625 -12.15625 C 36.710938 -12.15625 40.367188 -13.675781 43.109375 -16.71875 C 45.859375 -19.769531 47.234375 -23.796875 47.234375 -28.796875 C 47.234375 -33.859375 45.859375 -37.894531 43.109375 -40.90625 C 40.367188 -43.925781 36.710938 -45.4375 32.140625 -45.4375 C 27.515625 -45.4375 23.828125 -43.941406 21.078125 -40.953125 C 18.335938 -37.960938 16.96875 -33.910156 16.96875 -28.796875 C 16.96875 -23.734375 18.335938 -19.691406 21.078125 -16.671875 C 23.828125 -13.660156 27.515625 -12.15625 32.140625 -12.15625 Z M 32.140625 -12.15625 "/></g></g></g><g fill="#223a5e" fill-opacity="1"><g transform="translate(310.731748, 411.75)"><g><path d="M 69.90625 -57.265625 L 69.90625 0 L 55.96875 0 L 55.96875 -34.34375 L 43.15625 0 L 31.890625 0 L 19 -34.421875 L 19 0 L 5.0625 0 L 5.0625 -57.265625 L 21.53125 -57.265625 L 37.609375 -17.625 L 53.515625 -57.265625 Z M 69.90625 -57.265625 "/></g></g></g><g fill="#223a5e" fill-opacity="1"><g transform="translate(407.074688, 411.75)"><g><path d="M 32.140625 0.578125 C 26.753906 0.578125 21.816406 -0.671875 17.328125 -3.171875 C 12.847656 -5.679688 9.285156 -9.175781 6.640625 -13.65625 C 4.003906 -18.144531 2.6875 -23.191406 2.6875 -28.796875 C 2.6875 -34.398438 4.003906 -39.429688 6.640625 -43.890625 C 9.285156 -48.347656 12.847656 -51.828125 17.328125 -54.328125 C 21.816406 -56.828125 26.753906 -58.078125 32.140625 -58.078125 C 37.523438 -58.078125 42.457031 -56.828125 46.9375 -54.328125 C 51.425781 -51.828125 54.960938 -48.347656 57.546875 -43.890625 C 60.128906 -39.429688 61.421875 -34.398438 61.421875 -28.796875 C 61.421875 -23.191406 60.113281 -18.144531 57.5 -13.65625 C 54.894531 -9.175781 51.363281 -5.679688 46.90625 -3.171875 C 42.445312 -0.671875 37.523438 0.578125 32.140625 0.578125 Z M 32.140625 -12.15625 C 36.710938 -12.15625 40.367188 -13.675781 43.109375 -16.71875 C 45.859375 -19.769531 47.234375 -23.796875 47.234375 -28.796875 C 47.234375 -33.859375 45.859375 -37.894531 43.109375 -40.90625 C 40.367188 -43.925781 36.710938 -45.4375 32.140625 -45.4375 C 27.515625 -45.4375 23.828125 -43.941406 21.078125 -40.953125 C 18.335938 -37.960938 16.96875 -33.910156 16.96875 -28.796875 C 16.96875 -23.734375 18.335938 -19.691406 21.078125 -16.671875 C 23.828125 -13.660156 27.515625 -12.15625 32.140625 -12.15625 Z M 32.140625 -12.15625 "/></g></g></g><g fill="#223a5e" fill-opacity="1"><g transform="translate(492.649826, 411.75)"><g><path d="M 25.78125 0.578125 C 21.59375 0.578125 17.835938 -0.101562 14.515625 -1.46875 C 11.203125 -2.832031 8.550781 -4.84375 6.5625 -7.5 C 4.582031 -10.164062 3.535156 -13.375 3.421875 -17.125 L 18.28125 -17.125 C 18.488281 -15.007812 19.21875 -13.394531 20.46875 -12.28125 C 21.726562 -11.164062 23.363281 -10.609375 25.375 -10.609375 C 27.4375 -10.609375 29.066406 -11.082031 30.265625 -12.03125 C 31.460938 -12.976562 32.0625 -14.296875 32.0625 -15.984375 C 32.0625 -17.398438 31.582031 -18.570312 30.625 -19.5 C 29.675781 -20.425781 28.507812 -21.1875 27.125 -21.78125 C 25.738281 -22.375 23.765625 -23.054688 21.203125 -23.828125 C 17.503906 -24.960938 14.484375 -26.097656 12.140625 -27.234375 C 9.804688 -28.378906 7.796875 -30.066406 6.109375 -32.296875 C 4.429688 -34.535156 3.59375 -37.445312 3.59375 -41.03125 C 3.59375 -46.363281 5.519531 -50.535156 9.375 -53.546875 C 13.238281 -56.566406 18.269531 -58.078125 24.46875 -58.078125 C 30.78125 -58.078125 35.863281 -56.566406 39.71875 -53.546875 C 43.582031 -50.535156 45.648438 -46.335938 45.921875 -40.953125 L 30.84375 -40.953125 C 30.726562 -42.796875 30.046875 -44.25 28.796875 -45.3125 C 27.546875 -46.375 25.941406 -46.90625 23.984375 -46.90625 C 22.296875 -46.90625 20.9375 -46.457031 19.90625 -45.5625 C 18.875 -44.664062 18.359375 -43.375 18.359375 -41.6875 C 18.359375 -39.832031 19.226562 -38.390625 20.96875 -37.359375 C 22.707031 -36.328125 25.425781 -35.210938 29.125 -34.015625 C 32.820312 -32.765625 35.828125 -31.566406 38.140625 -30.421875 C 40.453125 -29.285156 42.445312 -27.628906 44.125 -25.453125 C 45.8125 -23.273438 46.65625 -20.472656 46.65625 -17.046875 C 46.65625 -13.785156 45.828125 -10.820312 44.171875 -8.15625 C 42.515625 -5.488281 40.109375 -3.363281 36.953125 -1.78125 C 33.796875 -0.207031 30.070312 0.578125 25.78125 0.578125 Z M 25.78125 0.578125 "/></g></g></g><g fill="#f7f9fb" fill-opacity="1"><g transform="translate(256.009444, 460.540509)"><g><path d="M 12.34375 -26.671875 C 15.15625 -26.671875 17.613281 -26.113281 19.71875 -25 C 21.820312 -23.882812 23.445312 -22.320312 24.59375 -20.3125 C 25.75 -18.300781 26.328125 -15.976562 26.328125 -13.34375 C 26.328125 -10.726562 25.75 -8.40625 24.59375 -6.375 C 23.445312 -4.351562 21.816406 -2.785156 19.703125 -1.671875 C 17.585938 -0.554688 15.132812 0 12.34375 0 L 2.359375 0 L 2.359375 -26.671875 Z M 11.9375 -5.625 C 14.394531 -5.625 16.304688 -6.296875 17.671875 -7.640625 C 19.035156 -8.984375 19.71875 -10.882812 19.71875 -13.34375 C 19.71875 -15.800781 19.035156 -17.710938 17.671875 -19.078125 C 16.304688 -20.441406 14.394531 -21.125 11.9375 -21.125 L 8.859375 -21.125 L 8.859375 -5.625 Z M 11.9375 -5.625 "/></g></g></g><g fill="#f7f9fb" fill-opacity="1"><g transform="translate(299.019807, 460.540509)"><g><path d="M 8.859375 -21.46875 L 8.859375 -16.078125 L 17.5625 -16.078125 L 17.5625 -11.0625 L 8.859375 -11.0625 L 8.859375 -5.203125 L 18.703125 -5.203125 L 18.703125 0 L 2.359375 0 L 2.359375 -26.671875 L 18.703125 -26.671875 L 18.703125 -21.46875 Z M 8.859375 -21.46875 "/></g></g></g><g fill="#f7f9fb" fill-opacity="1"><g transform="translate(334.963614, 460.540509)"><g><path d="M 12.015625 0.265625 C 10.054688 0.265625 8.304688 -0.0507812 6.765625 -0.6875 C 5.222656 -1.320312 3.988281 -2.257812 3.0625 -3.5 C 2.132812 -4.738281 1.644531 -6.234375 1.59375 -7.984375 L 8.515625 -7.984375 C 8.609375 -6.992188 8.945312 -6.238281 9.53125 -5.71875 C 10.113281 -5.195312 10.875 -4.9375 11.8125 -4.9375 C 12.78125 -4.9375 13.539062 -5.15625 14.09375 -5.59375 C 14.65625 -6.039062 14.9375 -6.660156 14.9375 -7.453125 C 14.9375 -8.109375 14.710938 -8.648438 14.265625 -9.078125 C 13.828125 -9.515625 13.285156 -9.867188 12.640625 -10.140625 C 11.992188 -10.421875 11.070312 -10.738281 9.875 -11.09375 C 8.15625 -11.625 6.75 -12.15625 5.65625 -12.6875 C 4.570312 -13.21875 3.632812 -14.003906 2.84375 -15.046875 C 2.0625 -16.085938 1.671875 -17.441406 1.671875 -19.109375 C 1.671875 -21.597656 2.566406 -23.546875 4.359375 -24.953125 C 6.160156 -26.359375 8.507812 -27.0625 11.40625 -27.0625 C 14.34375 -27.0625 16.707031 -26.359375 18.5 -24.953125 C 20.300781 -23.546875 21.265625 -21.585938 21.390625 -19.078125 L 14.359375 -19.078125 C 14.304688 -19.941406 13.988281 -20.617188 13.40625 -21.109375 C 12.832031 -21.597656 12.085938 -21.84375 11.171875 -21.84375 C 10.390625 -21.84375 9.753906 -21.632812 9.265625 -21.21875 C 8.785156 -20.800781 8.546875 -20.203125 8.546875 -19.421875 C 8.546875 -18.554688 8.953125 -17.882812 9.765625 -17.40625 C 10.578125 -16.925781 11.84375 -16.40625 13.5625 -15.84375 C 15.289062 -15.257812 16.691406 -14.703125 17.765625 -14.171875 C 18.835938 -13.640625 19.765625 -12.867188 20.546875 -11.859375 C 21.335938 -10.847656 21.734375 -9.539062 21.734375 -7.9375 C 21.734375 -6.414062 21.347656 -5.035156 20.578125 -3.796875 C 19.804688 -2.554688 18.6875 -1.566406 17.21875 -0.828125 C 15.75 -0.0976562 14.015625 0.265625 12.015625 0.265625 Z M 12.015625 0.265625 "/></g></g></g><g fill="#f7f9fb" fill-opacity="1"><g transform="translate(373.718846, 460.540509)"><g><path d="M 8.859375 -26.671875 L 8.859375 0 L 2.359375 0 L 2.359375 -26.671875 Z M 8.859375 -26.671875 "/></g></g></g><g fill="#f7f9fb" fill-opacity="1"><g transform="translate(400.316562, 460.540509)"><g><path d="M 20.0625 -18.234375 C 19.582031 -19.117188 18.890625 -19.796875 17.984375 -20.265625 C 17.085938 -20.734375 16.03125 -20.96875 14.8125 -20.96875 C 12.71875 -20.96875 11.035156 -20.273438 9.765625 -18.890625 C 8.492188 -17.515625 7.859375 -15.675781 7.859375 -13.375 C 7.859375 -10.914062 8.523438 -8.992188 9.859375 -7.609375 C 11.191406 -6.234375 13.023438 -5.546875 15.359375 -5.546875 C 16.953125 -5.546875 18.296875 -5.953125 19.390625 -6.765625 C 20.492188 -7.578125 21.300781 -8.742188 21.8125 -10.265625 L 13.5625 -10.265625 L 13.5625 -15.046875 L 27.703125 -15.046875 L 27.703125 -9 C 27.222656 -7.382812 26.40625 -5.878906 25.25 -4.484375 C 24.09375 -3.085938 22.628906 -1.957031 20.859375 -1.09375 C 19.085938 -0.238281 17.085938 0.1875 14.859375 0.1875 C 12.222656 0.1875 9.875 -0.382812 7.8125 -1.53125 C 5.75 -2.6875 4.140625 -4.289062 2.984375 -6.34375 C 1.828125 -8.394531 1.25 -10.738281 1.25 -13.375 C 1.25 -16.007812 1.828125 -18.359375 2.984375 -20.421875 C 4.140625 -22.484375 5.742188 -24.09375 7.796875 -25.25 C 9.847656 -26.40625 12.1875 -26.984375 14.8125 -26.984375 C 18.007812 -26.984375 20.703125 -26.207031 22.890625 -24.65625 C 25.085938 -23.113281 26.539062 -20.972656 27.25 -18.234375 Z M 20.0625 -18.234375 "/></g></g></g><g fill="#f7f9fb" fill-opacity="1"><g transform="translate(444.656648, 460.540509)"><g><path d="M 26.21875 0 L 19.71875 0 L 8.859375 -16.453125 L 8.859375 0 L 2.359375 0 L 2.359375 -26.671875 L 8.859375 -26.671875 L 19.71875 -10.140625 L 19.71875 -26.671875 L 26.21875 -26.671875 Z M 26.21875 0 "/></g></g></g><g fill="#f7f9fb" fill-opacity="1"><g transform="translate(488.616824, 460.540509)"><g><path d="M 12.015625 0.265625 C 10.054688 0.265625 8.304688 -0.0507812 6.765625 -0.6875 C 5.222656 -1.320312 3.988281 -2.257812 3.0625 -3.5 C 2.132812 -4.738281 1.644531 -6.234375 1.59375 -7.984375 L 8.515625 -7.984375 C 8.609375 -6.992188 8.945312 -6.238281 9.53125 -5.71875 C 10.113281 -5.195312 10.875 -4.9375 11.8125 -4.9375 C 12.78125 -4.9375 13.539062 -5.15625 14.09375 -5.59375 C 14.65625 -6.039062 14.9375 -6.660156 14.9375 -7.453125 C 14.9375 -8.109375 14.710938 -8.648438 14.265625 -9.078125 C 13.828125 -9.515625 13.285156 -9.867188 12.640625 -10.140625 C 11.992188 -10.421875 11.070312 -10.738281 9.875 -11.09375 C 8.15625 -11.625 6.75 -12.15625 5.65625 -12.6875 C 4.570312 -13.21875 3.632812 -14.003906 2.84375 -15.046875 C 2.0625 -16.085938 1.671875 -17.441406 1.671875 -19.109375 C 1.671875 -21.597656 2.566406 -23.546875 4.359375 -24.953125 C 6.160156 -26.359375 8.507812 -27.0625 11.40625 -27.0625 C 14.34375 -27.0625 16.707031 -26.359375 18.5 -24.953125 C 20.300781 -23.546875 21.265625 -21.585938 21.390625 -19.078125 L 14.359375 -19.078125 C 14.304688 -19.941406 13.988281 -20.617188 13.40625 -21.109375 C 12.832031 -21.597656 12.085938 -21.84375 11.171875 -21.84375 C 10.390625 -21.84375 9.753906 -21.632812 9.265625 -21.21875 C 8.785156 -20.800781 8.546875 -20.203125 8.546875 -19.421875 C 8.546875 -18.554688 8.953125 -17.882812 9.765625 -17.40625 C 10.578125 -16.925781 11.84375 -16.40625 13.5625 -15.84375 C 15.289062 -15.257812 16.691406 -14.703125 17.765625 -14.171875 C 18.835938 -13.640625 19.765625 -12.867188 20.546875 -11.859375 C 21.335938 -10.847656 21.734375 -9.539062 21.734375 -7.9375 C 21.734375 -6.414062 21.347656 -5.035156 20.578125 -3.796875 C 19.804688 -2.554688 18.6875 -1.566406 17.21875 -0.828125 C 15.75 -0.0976562 14.015625 0.265625 12.015625 0.265625 Z M 12.015625 0.265625 "/></g></g></g></svg>