<svg xmlns="http://www.w3.org/2000/svg" xmlns:xlink="http://www.w3.org/1999/xlink" width="851" zoomAndPan="magnify" viewBox="0 0 638.25 236.249991" height="315" preserveAspectRatio="xMidYMid meet" version="1.0"><defs><g/><clipPath id="f1791173aa"><path d="M 0.636719 0 L 636.867188 0 L 636.867188 235.503906 L 0.636719 235.503906 Z M 0.636719 0 " clip-rule="nonzero"/></clipPath><clipPath id="df20a2ef10"><path d="M 42.011719 77.316406 L 161.632812 77.316406 L 161.632812 142 L 42.011719 142 Z M 42.011719 77.316406 " clip-rule="nonzero"/></clipPath><clipPath id="46e8515e46"><path d="M 490.792969 77.316406 L 562.5625 77.316406 L 562.5625 158.058594 L 490.792969 158.058594 Z M 490.792969 77.316406 " clip-rule="nonzero"/></clipPath></defs><g clip-path="url(#f1791173aa)"><path fill="#ffffff" d="M 0.636719 0 L 636.867188 0 L 636.867188 235.503906 L 0.636719 235.503906 Z M 0.636719 0 " fill-opacity="1" fill-rule="nonzero"/><path stroke-linecap="butt" transform="matrix(0.747627, 0, 0, 0.747627, 0.636088, 0.00000254349)" fill-opacity="1" fill="#223a5e" fill-rule="nonzero" stroke-linejoin="miter" d="M 0.00084356 -0.00000340209 L 851.001242 -0.00000340209 L 851.001242 315.002072 L 0.00084356 315.002072 Z M 0.00084356 -0.00000340209 " stroke="#2ec4b6" stroke-width="30" stroke-opacity="1" stroke-miterlimit="4"/></g><g clip-path="url(#df20a2ef10)"><path fill="#ffd166" d="M 58.480469 138.871094 C 63.410156 139.078125 68.339844 139.242188 73.261719 139.519531 C 74.757812 139.601562 74.613281 138.480469 74.9375 137.667969 C 75.300781 136.769531 74.511719 135.730469 75.289062 134.839844 C 75.5 134.59375 75.226562 134.449219 74.855469 134.335938 C 71.28125 133.246094 68.054688 131.3125 64.546875 130.023438 C 62.402344 129.234375 60.386719 128.0625 58.191406 127.300781 C 57.59375 127.09375 56.300781 126.554688 56.863281 125.371094 C 57.402344 124.234375 58.34375 124.898438 59.089844 125.207031 C 62.429688 126.582031 65.753906 127.988281 69.078125 129.402344 C 71.074219 130.253906 73.054688 131.136719 75.039062 132.003906 C 75.691406 132.292969 76.089844 132.402344 76.265625 131.402344 C 76.417969 130.546875 76.886719 129.667969 77.441406 128.988281 C 78.636719 127.519531 77.738281 126.667969 76.628906 125.984375 C 72.699219 123.574219 68.707031 121.277344 64.78125 118.859375 C 60.714844 116.359375 56.703125 113.761719 52.65625 111.226562 C 51.953125 110.785156 50.957031 110.238281 51.382812 109.449219 C 51.902344 108.484375 52.992188 108.929688 53.792969 109.417969 C 58.289062 112.171875 62.769531 114.941406 67.253906 117.703125 C 70.292969 119.570312 73.335938 121.429688 76.375 123.292969 C 76.789062 123.546875 77.230469 123.757812 77.613281 124.046875 C 79.574219 125.527344 80.074219 125.460938 81.296875 123.433594 C 81.757812 122.664062 81.355469 122.058594 80.832031 121.472656 C 77.40625 117.644531 74 113.796875 70.5625 109.976562 C 70.171875 109.542969 69.734375 109.140625 69.207031 108.800781 C 68.738281 108.496094 67.941406 107.855469 68.578125 107.050781 C 69.21875 106.246094 70.019531 106.488281 70.640625 107.097656 C 72.21875 108.644531 73.816406 110.183594 75.277344 111.835938 C 77.636719 114.507812 79.945312 117.230469 82.167969 120.015625 C 83.066406 121.136719 83.835938 121.300781 84.917969 120.402344 C 85.46875 119.945312 86.035156 119.449219 86.683594 119.183594 C 88.699219 118.359375 88.292969 117.207031 87.433594 115.703125 C 85.003906 111.460938 82.804688 107.085938 80.300781 102.890625 C 77.667969 98.484375 75.707031 93.742188 73.152344 89.308594 C 72.761719 88.628906 72.125 88.054688 71.890625 87.335938 C 71.757812 86.929688 71.21875 86.265625 71.976562 85.773438 C 72.6875 85.3125 73.277344 85.414062 73.730469 86.066406 C 74.210938 86.761719 74.632812 87.5 75.035156 88.246094 C 79.933594 97.3125 84.847656 106.367188 89.679688 115.46875 C 90.292969 116.625 90.960938 116.652344 92.019531 116.402344 C 95.15625 115.660156 95.042969 115.726562 94.066406 112.554688 C 92.667969 108.011719 91.464844 103.402344 90.179688 98.824219 C 89.945312 97.976562 89.863281 97.058594 89.46875 96.296875 C 89.054688 95.503906 89.113281 94.945312 89.90625 94.699219 C 90.707031 94.449219 91.273438 94.832031 91.523438 95.730469 C 92.097656 97.8125 92.765625 99.871094 93.371094 101.945312 C 94.53125 105.929688 95.695312 109.914062 96.8125 113.910156 C 97.140625 115.070312 97.636719 115.761719 98.949219 115.203125 C 99.832031 114.828125 101.117188 115.617188 101.628906 114.699219 C 102.03125 113.980469 101.777344 112.890625 101.785156 111.96875 C 101.835938 105.054688 101.820312 98.136719 101.949219 91.222656 C 102.023438 87.117188 102.304688 83.011719 102.519531 78.90625 C 102.554688 78.214844 102.433594 77.339844 103.597656 77.402344 C 104.796875 77.464844 104.785156 78.304688 104.679688 79.125 C 103.859375 85.492188 104.09375 91.902344 103.953125 98.289062 C 103.84375 103.453125 103.925781 108.621094 103.75 113.785156 C 103.695312 115.289062 106.386719 116.824219 107.679688 116.078125 C 107.851562 115.976562 107.960938 115.710938 108.03125 115.5 C 109.652344 110.472656 111.246094 105.429688 112.898438 100.414062 C 113.269531 99.289062 114.019531 98.277344 114.277344 97.140625 C 114.511719 96.082031 115.164062 95.921875 115.855469 96.148438 C 116.730469 96.433594 116.621094 97.175781 116.308594 97.960938 C 115.46875 100.085938 114.667969 102.226562 113.929688 104.386719 C 112.664062 108.089844 111.457031 111.8125 110.238281 115.53125 C 109.929688 116.472656 109.714844 117.382812 111.15625 117.605469 C 111.550781 117.667969 111.917969 117.949219 112.289062 118.148438 C 113.304688 118.691406 113.902344 118.546875 114.582031 117.429688 C 116.3125 114.570312 118.371094 111.90625 120.113281 109.050781 C 122.742188 104.734375 125.746094 100.644531 127.863281 96.011719 C 128.679688 94.230469 129.894531 92.632812 130.882812 90.921875 C 131.3125 90.175781 131.992188 90.363281 132.480469 90.550781 C 133.164062 90.808594 133.183594 91.394531 132.800781 92.0625 C 131.175781 94.910156 129.664062 97.828125 127.980469 100.640625 C 124.335938 106.722656 120.671875 112.792969 116.464844 118.515625 C 115.867188 119.332031 115.695312 119.917969 116.824219 120.695312 C 120.421875 123.167969 120.359375 123.230469 123.800781 120.003906 C 127.359375 116.667969 130.941406 113.363281 134.503906 110.035156 C 135.195312 109.386719 135.984375 108.621094 136.832031 109.535156 C 137.78125 110.554688 136.679688 111.175781 136.035156 111.761719 C 131.65625 115.71875 127.300781 119.699219 122.84375 123.566406 C 121.820312 124.453125 121.828125 125.03125 122.5625 126.011719 C 124.171875 128.160156 124.117188 128.140625 126.507812 126.917969 C 133.550781 123.316406 140.324219 119.203125 147.507812 115.863281 C 149.558594 114.910156 151.46875 113.664062 153.441406 112.554688 C 153.847656 112.328125 154.238281 111.984375 154.671875 111.910156 C 155.363281 111.796875 156.257812 111.570312 156.597656 112.464844 C 156.898438 113.277344 156.179688 113.695312 155.585938 114.007812 C 145.769531 119.1875 135.949219 124.367188 126.105469 129.5 C 125.285156 129.925781 124.992188 130.269531 125.503906 131.097656 C 125.761719 131.507812 125.953125 131.96875 126.113281 132.429688 C 126.460938 133.425781 126.363281 134.90625 127.1875 135.304688 C 127.847656 135.628906 129.035156 134.78125 130.011719 134.542969 C 135.753906 133.15625 141.496094 131.765625 147.261719 130.460938 C 147.882812 130.320312 149.046875 129.902344 149.179688 131.136719 C 149.289062 132.160156 148.5 132.449219 147.523438 132.640625 C 141.085938 133.894531 134.710938 135.425781 128.414062 137.289062 C 127.386719 137.589844 127.847656 138.164062 127.796875 138.671875 C 127.722656 139.425781 128.207031 139.628906 128.847656 139.59375 C 137.777344 139.109375 146.695312 139.714844 155.617188 139.898438 C 157.15625 139.929688 158.699219 139.863281 160.238281 139.800781 C 160.96875 139.769531 161.566406 140.078125 161.574219 140.742188 C 161.582031 141.527344 160.941406 141.671875 160.160156 141.695312 C 151.652344 141.972656 143.160156 141.523438 134.664062 141.378906 C 127.863281 141.261719 121.0625 141.441406 114.257812 141.292969 C 109.613281 141.1875 104.949219 141.371094 100.296875 141.4375 C 93.890625 141.53125 87.488281 141.242188 81.097656 141.390625 C 68.511719 141.691406 55.964844 140.882812 43.40625 140.507812 C 42.589844 140.480469 42.007812 140.457031 42.0625 139.332031 C 42.121094 138.09375 42.980469 138.539062 43.503906 138.558594 C 48.492188 138.726562 53.480469 138.953125 58.46875 139.160156 C 58.472656 139.066406 58.476562 138.96875 58.480469 138.871094 Z M 76.757812 138.910156 C 76.570312 139.730469 77.40625 139.503906 78.0625 139.5 C 87.421875 139.46875 96.777344 139.417969 106.132812 139.398438 C 112.292969 139.386719 118.453125 139.398438 124.613281 139.441406 C 125.507812 139.449219 125.824219 139.269531 125.605469 138.324219 C 124.210938 132.351562 122.046875 126.890625 116.773438 123.105469 C 113.832031 120.992188 110.609375 119.664062 107.265625 118.410156 C 101.910156 116.398438 96.699219 117.484375 91.582031 118.957031 C 89.484375 119.558594 87.652344 121.195312 85.796875 122.5 C 80.25 126.398438 77.722656 132.027344 76.757812 138.910156 Z M 76.757812 138.910156 " fill-opacity="1" fill-rule="nonzero"/></g><path fill="#ffd166" d="M 57.972656 153.140625 C 60.441406 153.207031 62.746094 153.972656 65.027344 154.859375 C 67.386719 155.773438 69.660156 155.59375 71.875 154.3125 C 75.792969 152.050781 79.832031 151.734375 83.972656 153.71875 C 85.699219 154.546875 87.5 155.21875 89.386719 155.53125 C 90.628906 155.734375 91.886719 155.613281 93.066406 154.976562 C 94.277344 154.324219 95.539062 153.757812 96.800781 153.195312 C 100.445312 151.566406 103.773438 153.101562 107.050781 154.398438 C 109.722656 155.457031 112.074219 155.480469 114.660156 153.964844 C 118.824219 151.523438 123.089844 151.039062 127.546875 153.75 C 130.851562 155.761719 134.554688 155.808594 137.933594 153.773438 C 141.59375 151.570312 145.261719 152.019531 149.023438 153.175781 C 149.667969 153.375 150.511719 153.609375 150.203125 154.539062 C 149.859375 155.570312 149.109375 155.105469 148.382812 154.886719 C 144.917969 153.847656 141.621094 153.800781 138.257812 155.691406 C 134.507812 157.792969 130.425781 157.445312 126.753906 155.429688 C 122.886719 153.308594 119.320312 153.308594 115.632812 155.628906 C 112.414062 157.652344 109.035156 157.414062 105.765625 155.875 C 103.855469 154.976562 101.847656 154.613281 99.839844 154.277344 C 98.84375 154.109375 97.726562 154.679688 96.828125 155.253906 C 92.332031 158.125 87.84375 157.773438 83.261719 155.457031 C 79.792969 153.703125 76.425781 153.75 73 155.890625 C 70.125 157.691406 67.085938 157.757812 63.8125 156.332031 C 61.074219 155.140625 58.0625 154.292969 54.972656 155.464844 C 54.332031 155.710938 53.617188 155.738281 53.40625 154.953125 C 53.1875 154.140625 53.851562 154.054688 54.496094 153.78125 C 55.636719 153.300781 56.757812 153.09375 57.96875 153.140625 Z M 57.972656 153.140625 " fill-opacity="1" fill-rule="nonzero"/><g clip-path="url(#46e8515e46)"><path fill="#ffd166" d="M 524.234375 91.308594 C 528.671875 94.132812 531.765625 98.84375 532.304688 104.222656 C 534.054688 105.03125 536.074219 105.570312 538.226562 105.570312 C 546.027344 105.570312 552.351562 99.246094 552.351562 91.441406 C 552.351562 83.640625 546.027344 77.316406 538.226562 77.316406 C 530.554688 77.449219 524.234375 83.640625 524.234375 91.308594 Z M 514.949219 120.101562 C 522.753906 120.101562 529.078125 113.777344 529.078125 105.972656 C 529.078125 98.171875 522.753906 91.847656 514.949219 91.847656 C 507.144531 91.847656 500.824219 98.171875 500.824219 105.972656 C 500.824219 113.777344 507.144531 120.101562 514.949219 120.101562 Z M 520.871094 121.042969 L 508.894531 121.042969 C 498.9375 121.042969 490.867188 129.113281 490.867188 139.070312 L 490.867188 154.003906 L 491.808594 154.273438 C 501.226562 157.234375 509.566406 158.175781 516.292969 158.175781 C 529.480469 158.175781 537.148438 154.410156 537.6875 154.140625 L 538.628906 153.601562 L 538.761719 153.601562 L 538.761719 139.070312 C 538.898438 129.113281 530.824219 121.042969 520.871094 121.042969 Z M 544.144531 106.511719 L 532.304688 106.511719 C 532.171875 111.21875 530.152344 115.527344 526.921875 118.621094 C 535.804688 121.3125 542.261719 129.382812 542.261719 139.070312 L 542.261719 143.511719 C 553.96875 143.105469 560.695312 139.742188 561.097656 139.609375 L 562.039062 139.070312 L 562.175781 139.070312 L 562.175781 124.539062 C 562.175781 114.585938 554.101562 106.511719 544.144531 106.511719 Z M 544.144531 106.511719 " fill-opacity="1" fill-rule="nonzero"/></g><g fill="#2ec4b6" fill-opacity="1"><g transform="translate(227.538182, 116.836788)"><g><path d="M 20.84375 0.375 C 17.351562 0.375 14.148438 -0.4375 11.234375 -2.0625 C 8.328125 -3.6875 6.019531 -5.953125 4.3125 -8.859375 C 2.601562 -11.773438 1.75 -15.046875 1.75 -18.671875 C 1.75 -22.304688 2.601562 -25.566406 4.3125 -28.453125 C 6.019531 -31.347656 8.328125 -33.609375 11.234375 -35.234375 C 14.148438 -36.859375 17.351562 -37.671875 20.84375 -37.671875 C 24.332031 -37.671875 27.53125 -36.859375 30.4375 -35.234375 C 33.351562 -33.609375 35.648438 -31.347656 37.328125 -28.453125 C 39.003906 -25.566406 39.84375 -22.304688 39.84375 -18.671875 C 39.84375 -15.046875 38.992188 -11.773438 37.296875 -8.859375 C 35.609375 -5.953125 33.316406 -3.6875 30.421875 -2.0625 C 27.523438 -0.4375 24.332031 0.375 20.84375 0.375 Z M 20.84375 -7.890625 C 23.8125 -7.890625 26.179688 -8.875 27.953125 -10.84375 C 29.734375 -12.820312 30.625 -15.429688 30.625 -18.671875 C 30.625 -21.953125 29.734375 -24.570312 27.953125 -26.53125 C 26.179688 -28.488281 23.8125 -29.46875 20.84375 -29.46875 C 17.84375 -29.46875 15.453125 -28.5 13.671875 -26.5625 C 11.890625 -24.625 11 -21.992188 11 -18.671875 C 11 -15.390625 11.890625 -12.769531 13.671875 -10.8125 C 15.453125 -8.863281 17.84375 -7.890625 20.84375 -7.890625 Z M 20.84375 -7.890625 "/></g></g></g><g fill="#2ec4b6" fill-opacity="1"><g transform="translate(276.996718, 116.836788)"><g><path d="M 45.34375 -37.140625 L 45.34375 0 L 36.296875 0 L 36.296875 -22.28125 L 27.984375 0 L 20.6875 0 L 12.328125 -22.328125 L 12.328125 0 L 3.28125 0 L 3.28125 -37.140625 L 13.96875 -37.140625 L 24.390625 -11.421875 L 34.703125 -37.140625 Z M 45.34375 -37.140625 "/></g></g></g><g fill="#2ec4b6" fill-opacity="1"><g transform="translate(333.437342, 116.836788)"><g><path d="M 20.84375 0.375 C 17.351562 0.375 14.148438 -0.4375 11.234375 -2.0625 C 8.328125 -3.6875 6.019531 -5.953125 4.3125 -8.859375 C 2.601562 -11.773438 1.75 -15.046875 1.75 -18.671875 C 1.75 -22.304688 2.601562 -25.566406 4.3125 -28.453125 C 6.019531 -31.347656 8.328125 -33.609375 11.234375 -35.234375 C 14.148438 -36.859375 17.351562 -37.671875 20.84375 -37.671875 C 24.332031 -37.671875 27.53125 -36.859375 30.4375 -35.234375 C 33.351562 -33.609375 35.648438 -31.347656 37.328125 -28.453125 C 39.003906 -25.566406 39.84375 -22.304688 39.84375 -18.671875 C 39.84375 -15.046875 38.992188 -11.773438 37.296875 -8.859375 C 35.609375 -5.953125 33.316406 -3.6875 30.421875 -2.0625 C 27.523438 -0.4375 24.332031 0.375 20.84375 0.375 Z M 20.84375 -7.890625 C 23.8125 -7.890625 26.179688 -8.875 27.953125 -10.84375 C 29.734375 -12.820312 30.625 -15.429688 30.625 -18.671875 C 30.625 -21.953125 29.734375 -24.570312 27.953125 -26.53125 C 26.179688 -28.488281 23.8125 -29.46875 20.84375 -29.46875 C 17.84375 -29.46875 15.453125 -28.5 13.671875 -26.5625 C 11.890625 -24.625 11 -21.992188 11 -18.671875 C 11 -15.390625 11.890625 -12.769531 13.671875 -10.8125 C 15.453125 -8.863281 17.84375 -7.890625 20.84375 -7.890625 Z M 20.84375 -7.890625 "/></g></g></g><g fill="#2ec4b6" fill-opacity="1"><g transform="translate(382.895878, 116.836788)"><g><path d="M 16.71875 0.375 C 14 0.375 11.5625 -0.0664062 9.40625 -0.953125 C 7.257812 -1.835938 5.539062 -3.140625 4.25 -4.859375 C 2.96875 -6.585938 2.289062 -8.671875 2.21875 -11.109375 L 11.84375 -11.109375 C 11.988281 -9.734375 12.46875 -8.679688 13.28125 -7.953125 C 14.09375 -7.234375 15.148438 -6.875 16.453125 -6.875 C 17.796875 -6.875 18.851562 -7.179688 19.625 -7.796875 C 20.40625 -8.421875 20.796875 -9.28125 20.796875 -10.375 C 20.796875 -11.289062 20.484375 -12.046875 19.859375 -12.640625 C 19.242188 -13.242188 18.488281 -13.738281 17.59375 -14.125 C 16.695312 -14.507812 15.414062 -14.953125 13.75 -15.453125 C 11.351562 -16.191406 9.394531 -16.929688 7.875 -17.671875 C 6.363281 -18.410156 5.0625 -19.503906 3.96875 -20.953125 C 2.875 -22.398438 2.328125 -24.285156 2.328125 -26.609375 C 2.328125 -30.066406 3.578125 -32.773438 6.078125 -34.734375 C 8.585938 -36.691406 11.851562 -37.671875 15.875 -37.671875 C 19.96875 -37.671875 23.265625 -36.691406 25.765625 -34.734375 C 28.265625 -32.773438 29.601562 -30.050781 29.78125 -26.5625 L 20 -26.5625 C 19.925781 -27.757812 19.484375 -28.703125 18.671875 -29.390625 C 17.859375 -30.078125 16.816406 -30.421875 15.546875 -30.421875 C 14.460938 -30.421875 13.582031 -30.128906 12.90625 -29.546875 C 12.238281 -28.960938 11.90625 -28.125 11.90625 -27.03125 C 11.90625 -25.832031 12.46875 -24.894531 13.59375 -24.21875 C 14.726562 -23.550781 16.492188 -22.832031 18.890625 -22.0625 C 21.285156 -21.25 23.234375 -20.472656 24.734375 -19.734375 C 26.234375 -18.992188 27.53125 -17.914062 28.625 -16.5 C 29.71875 -15.09375 30.265625 -13.28125 30.265625 -11.0625 C 30.265625 -8.945312 29.722656 -7.023438 28.640625 -5.296875 C 27.566406 -3.566406 26.003906 -2.1875 23.953125 -1.15625 C 21.910156 -0.132812 19.5 0.375 16.71875 0.375 Z M 16.71875 0.375 "/></g></g></g><g fill="#f7f9fb" fill-opacity="1"><g transform="translate(218.741699, 150.162115)"><g><path d="M 10.359375 -22.390625 C 12.722656 -22.390625 14.785156 -21.921875 16.546875 -20.984375 C 18.316406 -20.046875 19.679688 -18.734375 20.640625 -17.046875 C 21.609375 -15.359375 22.09375 -13.40625 22.09375 -11.1875 C 22.09375 -9 21.609375 -7.054688 20.640625 -5.359375 C 19.679688 -3.660156 18.3125 -2.34375 16.53125 -1.40625 C 14.757812 -0.46875 12.703125 0 10.359375 0 L 1.984375 0 L 1.984375 -22.390625 Z M 10.015625 -4.71875 C 12.078125 -4.71875 13.679688 -5.28125 14.828125 -6.40625 C 15.972656 -7.53125 16.546875 -9.125 16.546875 -11.1875 C 16.546875 -13.25 15.972656 -14.851562 14.828125 -16 C 13.679688 -17.15625 12.078125 -17.734375 10.015625 -17.734375 L 7.4375 -17.734375 L 7.4375 -4.71875 Z M 10.015625 -4.71875 "/></g></g></g><g fill="#f7f9fb" fill-opacity="1"><g transform="translate(254.845366, 150.162115)"><g><path d="M 7.4375 -18.015625 L 7.4375 -13.484375 L 14.734375 -13.484375 L 14.734375 -9.28125 L 7.4375 -9.28125 L 7.4375 -4.375 L 15.6875 -4.375 L 15.6875 0 L 1.984375 0 L 1.984375 -22.390625 L 15.6875 -22.390625 L 15.6875 -18.015625 Z M 7.4375 -18.015625 "/></g></g></g><g fill="#f7f9fb" fill-opacity="1"><g transform="translate(285.017326, 150.162115)"><g><path d="M 10.078125 0.21875 C 8.441406 0.21875 6.972656 -0.046875 5.671875 -0.578125 C 4.378906 -1.109375 3.34375 -1.894531 2.5625 -2.9375 C 1.789062 -3.976562 1.382812 -5.234375 1.34375 -6.703125 L 7.140625 -6.703125 C 7.222656 -5.867188 7.507812 -5.234375 8 -4.796875 C 8.488281 -4.359375 9.128906 -4.140625 9.921875 -4.140625 C 10.722656 -4.140625 11.359375 -4.328125 11.828125 -4.703125 C 12.296875 -5.078125 12.53125 -5.59375 12.53125 -6.25 C 12.53125 -6.800781 12.34375 -7.253906 11.96875 -7.609375 C 11.601562 -7.972656 11.148438 -8.269531 10.609375 -8.5 C 10.066406 -8.738281 9.296875 -9.007812 8.296875 -9.3125 C 6.847656 -9.757812 5.664062 -10.207031 4.75 -10.65625 C 3.832031 -11.101562 3.046875 -11.757812 2.390625 -12.625 C 1.734375 -13.5 1.40625 -14.640625 1.40625 -16.046875 C 1.40625 -18.128906 2.160156 -19.757812 3.671875 -20.9375 C 5.179688 -22.113281 7.144531 -22.703125 9.5625 -22.703125 C 12.03125 -22.703125 14.019531 -22.113281 15.53125 -20.9375 C 17.039062 -19.757812 17.847656 -18.117188 17.953125 -16.015625 L 12.046875 -16.015625 C 12.003906 -16.734375 11.738281 -17.300781 11.25 -17.71875 C 10.769531 -18.132812 10.144531 -18.34375 9.375 -18.34375 C 8.71875 -18.34375 8.1875 -18.164062 7.78125 -17.8125 C 7.375 -17.457031 7.171875 -16.953125 7.171875 -16.296875 C 7.171875 -15.578125 7.507812 -15.015625 8.1875 -14.609375 C 8.875 -14.203125 9.941406 -13.765625 11.390625 -13.296875 C 12.828125 -12.804688 14 -12.335938 14.90625 -11.890625 C 15.8125 -11.441406 16.59375 -10.789062 17.25 -9.9375 C 17.90625 -9.09375 18.234375 -8.003906 18.234375 -6.671875 C 18.234375 -5.390625 17.910156 -4.226562 17.265625 -3.1875 C 16.617188 -2.144531 15.675781 -1.316406 14.4375 -0.703125 C 13.207031 -0.0859375 11.753906 0.21875 10.078125 0.21875 Z M 10.078125 0.21875 "/></g></g></g><g fill="#f7f9fb" fill-opacity="1"><g transform="translate(317.54921, 150.162115)"><g><path d="M 7.4375 -22.390625 L 7.4375 0 L 1.984375 0 L 1.984375 -22.390625 Z M 7.4375 -22.390625 "/></g></g></g><g fill="#f7f9fb" fill-opacity="1"><g transform="translate(339.876008, 150.162115)"><g><path d="M 16.84375 -15.3125 C 16.4375 -16.050781 15.851562 -16.617188 15.09375 -17.015625 C 14.34375 -17.410156 13.457031 -17.609375 12.4375 -17.609375 C 10.675781 -17.609375 9.257812 -17.023438 8.1875 -15.859375 C 7.125 -14.703125 6.59375 -13.15625 6.59375 -11.21875 C 6.59375 -9.15625 7.148438 -7.546875 8.265625 -6.390625 C 9.390625 -5.234375 10.929688 -4.65625 12.890625 -4.65625 C 14.222656 -4.65625 15.351562 -4.992188 16.28125 -5.671875 C 17.207031 -6.359375 17.882812 -7.335938 18.3125 -8.609375 L 11.390625 -8.609375 L 11.390625 -12.625 L 23.25 -12.625 L 23.25 -7.5625 C 22.84375 -6.195312 22.15625 -4.929688 21.1875 -3.765625 C 20.21875 -2.597656 18.988281 -1.648438 17.5 -0.921875 C 16.019531 -0.203125 14.34375 0.15625 12.46875 0.15625 C 10.257812 0.15625 8.285156 -0.328125 6.546875 -1.296875 C 4.816406 -2.265625 3.46875 -3.609375 2.5 -5.328125 C 1.53125 -7.046875 1.046875 -9.007812 1.046875 -11.21875 C 1.046875 -13.4375 1.53125 -15.410156 2.5 -17.140625 C 3.46875 -18.867188 4.8125 -20.21875 6.53125 -21.1875 C 8.257812 -22.15625 10.226562 -22.640625 12.4375 -22.640625 C 15.113281 -22.640625 17.367188 -21.988281 19.203125 -20.6875 C 21.046875 -19.394531 22.265625 -17.601562 22.859375 -15.3125 Z M 16.84375 -15.3125 "/></g></g></g><g fill="#f7f9fb" fill-opacity="1"><g transform="translate(377.095855, 150.162115)"><g><path d="M 22 0 L 16.546875 0 L 7.4375 -13.8125 L 7.4375 0 L 1.984375 0 L 1.984375 -22.390625 L 7.4375 -22.390625 L 16.546875 -8.515625 L 16.546875 -22.390625 L 22 -22.390625 Z M 22 0 "/></g></g></g><g fill="#f7f9fb" fill-opacity="1"><g transform="translate(413.996796, 150.162115)"><g><path d="M 10.078125 0.21875 C 8.441406 0.21875 6.972656 -0.046875 5.671875 -0.578125 C 4.378906 -1.109375 3.34375 -1.894531 2.5625 -2.9375 C 1.789062 -3.976562 1.382812 -5.234375 1.34375 -6.703125 L 7.140625 -6.703125 C 7.222656 -5.867188 7.507812 -5.234375 8 -4.796875 C 8.488281 -4.359375 9.128906 -4.140625 9.921875 -4.140625 C 10.722656 -4.140625 11.359375 -4.328125 11.828125 -4.703125 C 12.296875 -5.078125 12.53125 -5.59375 12.53125 -6.25 C 12.53125 -6.800781 12.34375 -7.253906 11.96875 -7.609375 C 11.601562 -7.972656 11.148438 -8.269531 10.609375 -8.5 C 10.066406 -8.738281 9.296875 -9.007812 8.296875 -9.3125 C 6.847656 -9.757812 5.664062 -10.207031 4.75 -10.65625 C 3.832031 -11.101562 3.046875 -11.757812 2.390625 -12.625 C 1.734375 -13.5 1.40625 -14.640625 1.40625 -16.046875 C 1.40625 -18.128906 2.160156 -19.757812 3.671875 -20.9375 C 5.179688 -22.113281 7.144531 -22.703125 9.5625 -22.703125 C 12.03125 -22.703125 14.019531 -22.113281 15.53125 -20.9375 C 17.039062 -19.757812 17.847656 -18.117188 17.953125 -16.015625 L 12.046875 -16.015625 C 12.003906 -16.734375 11.738281 -17.300781 11.25 -17.71875 C 10.769531 -18.132812 10.144531 -18.34375 9.375 -18.34375 C 8.71875 -18.34375 8.1875 -18.164062 7.78125 -17.8125 C 7.375 -17.457031 7.171875 -16.953125 7.171875 -16.296875 C 7.171875 -15.578125 7.507812 -15.015625 8.1875 -14.609375 C 8.875 -14.203125 9.941406 -13.765625 11.390625 -13.296875 C 12.828125 -12.804688 14 -12.335938 14.90625 -11.890625 C 15.8125 -11.441406 16.59375 -10.789062 17.25 -9.9375 C 17.90625 -9.09375 18.234375 -8.003906 18.234375 -6.671875 C 18.234375 -5.390625 17.910156 -4.226562 17.265625 -3.1875 C 16.617188 -2.144531 15.675781 -1.316406 14.4375 -0.703125 C 13.207031 -0.0859375 11.753906 0.21875 10.078125 0.21875 Z M 10.078125 0.21875 "/></g></g></g></svg>